# xmcd
# 
# Track frame offsets:
#   150
#   14662
#   26304
#   39121
#   54913
#   65071
#   77716
#   88031
#   97940
#   114139
#   124167
#   138026
#   152317
#   164369
#   182270
# 
# Disc length: 2653 seconds
# 
# Revision: 0
# Processed by: cddbd v1.5.2PL0 Copyright (c) Steve Scherf et al.
# Submitted via: VOLTOCDX V1.0.24 
# 
DISCID=a30a5b0f
DTITLE=Various Artist - ALL STAR KARAOKE CLASSIC COUNTRY VOL. 2 - DISC 2
DYEAR=2007
DGENRE=Karaoke
TTITLE0=TAKE ME HOME COUNTRY ROADS - JOHN DENVER
TTITLE1=RING OF FIRE - JOHNNY CASH
TTITLE2=TAKE THIS JOB AND SHOVE IT - JOHNNY PAYCHECK
TTITLE3=WHY ME LORD - KRIS KRISTOFFERSON
TTITLE4=IF YOU'VE GOT THE MONEY I'VE GOT THE TIME - LEFTY FRIZZEL
TTITLE5=OKIE FROM MUSKOGEE - MERLE HAGGARD
TTITLE6=BLUE MOON OF KENTUCKY - PATSY CLINE
TTITLE7=WALKIN' AFTER MIDNIGHT - PATSY CLINE
TTITLE8=TENNESSEE WALTZ - PEE WEE KING
TTITLE9=YOUR GOOD GIRL'S GONNA GO BAD - TAMMY WYNETTE
TTITLE10=TEXAS WHEN I DIE - TANYA TUCKER
TTITLE11=GREEN, GREEN GRASS OF HOME - TOM JONES
TTITLE12=MAMA'S DON'T LET YOUR BABIES GROW UP TO BE COWBOYS - WAYLON JENNINGS AND WILLIE NELSON
TTITLE13=ALWAYS ON MY MIND - WILLIE NELSON
TTITLE14=WHISKEY RIVER - WILLIE NELSON
EXTD=
EXTT0=
EXTT1=
EXTT2=
EXTT3=
EXTT4=
EXTT5=
EXTT6=
EXTT7=
EXTT8=
EXTT9=
EXTT10=
EXTT11=
EXTT12=
EXTT13=
EXTT14=
PLAYORDER=
